<mxfile host="Electron" agent="Mozilla/5.0 (Windows NT 10.0; Win64; x64) AppleWebKit/537.36 (KHTML, like Gecko) draw.io/26.2.2 Chrome/134.0.6998.178 Electron/35.1.2 Safari/537.36" version="26.2.2">
  <diagram name="PÃ¡gina-1" id="gNRekx0iYo1eRf3Tm5br">
    <mxGraphModel dx="1073" dy="641" grid="1" gridSize="10" guides="1" tooltips="1" connect="1" arrows="1" fold="1" page="1" pageScale="1" pageWidth="827" pageHeight="1169" math="0" shadow="0">
      <root>
        <mxCell id="0" />
        <mxCell id="1" parent="0" />
        <mxCell id="r-MxlwcItoz6ylRraPJN-32" value="" style="whiteSpace=wrap;html=1;aspect=fixed;" vertex="1" parent="1">
          <mxGeometry x="30" y="60" width="770" height="770" as="geometry" />
        </mxCell>
        <mxCell id="r-MxlwcItoz6ylRraPJN-30" style="edgeStyle=orthogonalEdgeStyle;rounded=0;orthogonalLoop=1;jettySize=auto;html=1;" edge="1" parent="1" source="r-MxlwcItoz6ylRraPJN-5" target="r-MxlwcItoz6ylRraPJN-23">
          <mxGeometry relative="1" as="geometry" />
        </mxCell>
        <mxCell id="r-MxlwcItoz6ylRraPJN-5" value="Users" style="swimlane;whiteSpace=wrap;html=1;" vertex="1" parent="1">
          <mxGeometry x="90" y="150" width="200" height="200" as="geometry" />
        </mxCell>
        <mxCell id="r-MxlwcItoz6ylRraPJN-7" value="Nome Completo: String" style="text;html=1;align=center;verticalAlign=middle;resizable=0;points=[];autosize=1;strokeColor=none;fillColor=none;" vertex="1" parent="r-MxlwcItoz6ylRraPJN-5">
          <mxGeometry y="60" width="150" height="30" as="geometry" />
        </mxCell>
        <mxCell id="r-MxlwcItoz6ylRraPJN-6" value="ID" style="text;html=1;align=center;verticalAlign=middle;resizable=0;points=[];autosize=1;strokeColor=none;fillColor=none;" vertex="1" parent="r-MxlwcItoz6ylRraPJN-5">
          <mxGeometry x="20" y="20" width="40" height="30" as="geometry" />
        </mxCell>
        <mxCell id="r-MxlwcItoz6ylRraPJN-8" value="Estudante:Bool" style="text;html=1;align=center;verticalAlign=middle;resizable=0;points=[];autosize=1;strokeColor=none;fillColor=none;" vertex="1" parent="r-MxlwcItoz6ylRraPJN-5">
          <mxGeometry x="25" y="100" width="100" height="30" as="geometry" />
        </mxCell>
        <mxCell id="r-MxlwcItoz6ylRraPJN-31" style="edgeStyle=orthogonalEdgeStyle;rounded=0;orthogonalLoop=1;jettySize=auto;html=1;entryX=1;entryY=0.75;entryDx=0;entryDy=0;" edge="1" parent="1" source="r-MxlwcItoz6ylRraPJN-9" target="r-MxlwcItoz6ylRraPJN-23">
          <mxGeometry relative="1" as="geometry" />
        </mxCell>
        <mxCell id="r-MxlwcItoz6ylRraPJN-9" value="Books" style="swimlane;whiteSpace=wrap;html=1;" vertex="1" parent="1">
          <mxGeometry x="430" y="150" width="200" height="225" as="geometry" />
        </mxCell>
        <mxCell id="r-MxlwcItoz6ylRraPJN-10" value="&lt;ul&gt;&lt;li&gt;&lt;span style=&quot;background-color: transparent; color: light-dark(rgb(0, 0, 0), rgb(255, 255, 255));&quot;&gt;Titulo&lt;/span&gt;&lt;/li&gt;&lt;/ul&gt;" style="text;html=1;align=left;verticalAlign=middle;resizable=0;points=[];autosize=1;strokeColor=none;fillColor=none;" vertex="1" parent="r-MxlwcItoz6ylRraPJN-9">
          <mxGeometry x="-10" y="50" width="90" height="50" as="geometry" />
        </mxCell>
        <mxCell id="r-MxlwcItoz6ylRraPJN-13" value="&lt;ul&gt;&lt;li&gt;Autor&lt;/li&gt;&lt;/ul&gt;" style="text;html=1;align=left;verticalAlign=middle;resizable=0;points=[];autosize=1;strokeColor=none;fillColor=none;" vertex="1" parent="r-MxlwcItoz6ylRraPJN-9">
          <mxGeometry x="-10" y="75" width="90" height="50" as="geometry" />
        </mxCell>
        <mxCell id="r-MxlwcItoz6ylRraPJN-14" value="&lt;ul&gt;&lt;li&gt;Genero&lt;/li&gt;&lt;/ul&gt;" style="text;html=1;align=left;verticalAlign=middle;resizable=0;points=[];autosize=1;strokeColor=none;fillColor=none;" vertex="1" parent="r-MxlwcItoz6ylRraPJN-9">
          <mxGeometry x="-10" y="125" width="100" height="50" as="geometry" />
        </mxCell>
        <mxCell id="r-MxlwcItoz6ylRraPJN-15" value="&lt;ul&gt;&lt;li&gt;ID&lt;/li&gt;&lt;/ul&gt;" style="text;html=1;align=center;verticalAlign=middle;resizable=0;points=[];autosize=1;strokeColor=none;fillColor=none;" vertex="1" parent="r-MxlwcItoz6ylRraPJN-9">
          <mxGeometry x="-20" y="25" width="80" height="50" as="geometry" />
        </mxCell>
        <mxCell id="r-MxlwcItoz6ylRraPJN-16" value="&lt;ul&gt;&lt;li&gt;ISBN&lt;/li&gt;&lt;/ul&gt;" style="text;html=1;align=left;verticalAlign=middle;resizable=0;points=[];autosize=1;strokeColor=none;fillColor=none;" vertex="1" parent="r-MxlwcItoz6ylRraPJN-9">
          <mxGeometry x="-10" y="100" width="90" height="50" as="geometry" />
        </mxCell>
        <mxCell id="r-MxlwcItoz6ylRraPJN-17" value="&lt;ul&gt;&lt;li&gt;Capa&lt;/li&gt;&lt;/ul&gt;" style="text;html=1;align=left;verticalAlign=middle;resizable=0;points=[];autosize=1;strokeColor=none;fillColor=none;" vertex="1" parent="r-MxlwcItoz6ylRraPJN-9">
          <mxGeometry x="-10" y="150" width="90" height="50" as="geometry" />
        </mxCell>
        <mxCell id="r-MxlwcItoz6ylRraPJN-18" value="&lt;ul&gt;&lt;li&gt;Fisico&lt;/li&gt;&lt;/ul&gt;" style="text;html=1;align=left;verticalAlign=middle;resizable=0;points=[];autosize=1;strokeColor=none;fillColor=none;" vertex="1" parent="r-MxlwcItoz6ylRraPJN-9">
          <mxGeometry x="-10" y="175" width="90" height="50" as="geometry" />
        </mxCell>
        <mxCell id="r-MxlwcItoz6ylRraPJN-23" value="MyLibrary" style="swimlane;whiteSpace=wrap;html=1;" vertex="1" parent="1">
          <mxGeometry x="280" y="530" width="200" height="200" as="geometry" />
        </mxCell>
        <mxCell id="r-MxlwcItoz6ylRraPJN-25" value="&lt;ul&gt;&lt;li&gt;BookID&lt;/li&gt;&lt;/ul&gt;" style="text;html=1;align=center;verticalAlign=middle;resizable=0;points=[];autosize=1;strokeColor=none;fillColor=none;" vertex="1" parent="r-MxlwcItoz6ylRraPJN-23">
          <mxGeometry x="-20" y="80" width="100" height="50" as="geometry" />
        </mxCell>
        <mxCell id="r-MxlwcItoz6ylRraPJN-24" value="&lt;ul&gt;&lt;li&gt;UserID&lt;span style=&quot;color: rgba(0, 0, 0, 0); font-family: monospace; font-size: 0px; text-align: start;&quot;&gt;%3CmxGraphModel%3E%3Croot%3E%3CmxCell%20id%3D%220%22%2F%3E%3CmxCell%20id%3D%221%22%20parent%3D%220%22%2F%3E%3CmxCell%20id%3D%222%22%20value%3D%22%26lt%3Bul%26gt%3B%26lt%3Bli%26gt%3BFisico%26lt%3B%2Fli%26gt%3B%26lt%3B%2Ful%26gt%3B%22%20style%3D%22text%3Bhtml%3D1%3Balign%3Dleft%3BverticalAlign%3Dmiddle%3Bresizable%3D0%3Bpoints%3D%5B%5D%3Bautosize%3D1%3BstrokeColor%3Dnone%3BfillColor%3Dnone%3B%22%20vertex%3D%221%22%20parent%3D%221%22%3E%3CmxGeometry%20x%3D%22420%22%20y%3D%22325%22%20width%3D%2290%22%20height%3D%2250%22%20as%3D%22geometry%22%2F%3E%3C%2FmxCell%3E%3CmxCell%20id%3D%223%22%20value%3D%22MinhaBiblioteca%22%20style%3D%22swimlane%3BwhiteSpace%3Dwrap%3Bhtml%3D1%3B%22%20vertex%3D%221%22%20parent%3D%221%22%3E%3CmxGeometry%20x%3D%22240%22%20y%3D%22550%22%20width%3D%22200%22%20height%3D%22200%22%20as%3D%22geometry%22%2F%3E%3C%2FmxCell%3E%3C%2Froot%3E%3C%2FmxGraphModel%3E&lt;/span&gt;&lt;/li&gt;&lt;/ul&gt;" style="text;html=1;align=center;verticalAlign=middle;resizable=0;points=[];autosize=1;strokeColor=none;fillColor=none;" vertex="1" parent="r-MxlwcItoz6ylRraPJN-23">
          <mxGeometry x="-20" y="30" width="100" height="50" as="geometry" />
        </mxCell>
      </root>
    </mxGraphModel>
  </diagram>
</mxfile>
